<svg width="30" height="30" viewBox="0 0 30 30" fill="none" xmlns="http://www.w3.org/2000/svg">
<path fill-rule="evenodd" clip-rule="evenodd" d="M21.05 8.25L5 8.25C4.58579 8.25 4.25 7.91421 4.25 7.5C4.25 7.08579 4.58579 6.75 5 6.75L21.05 6.75C21.2816 5.60888 22.2905 4.75 23.5 4.75H24C25.3807 4.75 26.5 5.86929 26.5 7.25V7.75C26.5 9.13071 25.3807 10.25 24 10.25H23.5C22.2905 10.25 21.2816 9.39112 21.05 8.25ZM23.5 8.75C22.9477 8.75 22.5 8.30228 22.5 7.75V7.25C22.5 6.69772 22.9477 6.25 23.5 6.25H24C24.5523 6.25 25 6.69772 25 7.25V7.75C25 8.30228 24.5523 8.75 24 8.75H23.5ZM12.3012 15.7561L4.99938 15.75C4.58516 15.7497 4.24966 15.4136 4.25 14.9994C4.25034 14.5852 4.58641 14.2497 5.00062 14.25L12.2988 14.2561C12.5281 13.1119 13.5384 12.25 14.75 12.25H15.25C16.4595 12.25 17.4684 13.1089 17.7 14.25L25 14.25C25.4142 14.25 25.75 14.5858 25.75 15C25.75 15.4142 25.4142 15.75 25 15.75L17.7 15.75C17.4683 16.8911 16.4595 17.75 15.25 17.75H14.75C13.5427 17.75 12.5352 16.8942 12.3012 15.7561ZM14.75 16.25C14.1977 16.25 13.75 15.8023 13.75 15.25V14.75C13.75 14.1977 14.1977 13.75 14.75 13.75H15.25C15.8023 13.75 16.25 14.1977 16.25 14.75V15.25C16.25 15.8023 15.8023 16.25 15.25 16.25H14.75ZM8.94999 21.75C8.71836 20.6089 7.70948 19.75 6.5 19.75H6C4.61929 19.75 3.5 20.8693 3.5 22.25V22.75C3.5 24.1307 4.61929 25.25 6 25.25H6.5C7.70948 25.25 8.71836 24.3911 8.94999 23.25L25 23.25C25.4142 23.25 25.75 22.9142 25.75 22.5C25.75 22.0858 25.4142 21.75 25 21.75L8.94999 21.75ZM6 23.75C5.44772 23.75 5 23.3023 5 22.75L5 22.25C5 21.6977 5.44772 21.25 6 21.25H6.5C7.05228 21.25 7.5 21.6977 7.5 22.25V22.75C7.5 23.3023 7.05228 23.75 6.5 23.75H6Z" fill="#EAEAEA"/>
</svg>
