<svg xmlns="http://www.w3.org/2000/svg" width="60" height="60" fill="none" viewBox="0 0 60 60">
  <path fill="#EAEAEA" fill-opacity=".75" fill-rule="evenodd" d="M7.5 30c0 11.125 8.125 20.375 18.75 22.25l.125-.1a18.5 18.5 0 0 1-.125-.025V36.25h-5.625V30h5.625v-5c0-5.625 3.625-8.75 8.75-8.75 1.625 0 3.375.25 5 .5v5.75h-2.875c-2.75 0-3.375 1.375-3.375 3.125V30h6l-1 6.25h-5v15.875a18.5 18.5 0 0 1-.125.025l.125.1C44.375 50.375 52.5 41.125 52.5 30 52.5 17.625 42.375 7.5 30 7.5S7.5 17.625 7.5 30Z" clip-rule="evenodd"/>
</svg>
