<svg width="24" height="24" viewBox="0 0 24 24" fill="none" xmlns="http://www.w3.org/2000/svg">
<path fill-rule="evenodd" clip-rule="evenodd" d="M11.4188 5.644C11.7665 5.39564 12.2335 5.39564 12.5812 5.644L17.5812 9.21543C17.844 9.40314 18 9.70621 18 10.0292V17.9999C18 18.5522 17.5523 18.9999 17 18.9999H7C6.44772 18.9999 6 18.5522 6 17.9999V10.0292C6 9.70621 6.15597 9.40314 6.41876 9.21543L11.4188 5.644ZM13.7437 4.01653C12.7006 3.27147 11.2994 3.27147 10.2563 4.01653L5.25629 7.58796C4.4679 8.1511 4 9.06031 4 10.0292V17.9999C4 19.6568 5.34315 20.9999 7 20.9999H17C18.6569 20.9999 20 19.6568 20 17.9999V10.0292C20 9.06031 19.5321 8.1511 18.7437 7.58796L13.7437 4.01653ZM13 12C13 11.4477 12.5523 11 12 11C11.4477 11 11 11.4477 11 12V13H10C9.44772 13 9 13.4477 9 14C9 14.5523 9.44772 15 10 15H11V16C11 16.5523 11.4477 17 12 17C12.5523 17 13 16.5523 13 16V15H14C14.5523 15 15 14.5523 15 14C15 13.4477 14.5523 13 14 13H13V12Z" fill="#121211"/>
</svg>
