<svg xmlns="http://www.w3.org/2000/svg" width="31" height="31" fill="none" viewBox="0 0 31 31">
  <path fill="gray" fill-opacity=".75" d="m20.037 16.374-6.235 6.363a1.8 1.8 0 0 1-2.57-2.52l3.193-3.26-12.456.126a1.8 1.8 0 0 1-.036-3.6l12.456-.125-3.26-3.194a1.8 1.8 0 0 1 2.52-2.572l6.363 6.237a1.8 1.8 0 0 1 .025 2.545ZM27 .03 16.201.14a1.8 1.8 0 0 0 .037 3.6l10.198-.103.23 22.799-10.199.103a1.8 1.8 0 0 0 .037 3.6l10.797-.11a3.002 3.002 0 0 0 2.97-3.03L30.028 3a3.004 3.004 0 0 0-3.03-2.97Z"/>
</svg>
