<svg xmlns="http://www.w3.org/2000/svg" width="31" height="31" fill="none" viewBox="0 0 31 31">
  <path fill="url(#a)" d="m27.3 30.029-7.2.071a3.043 3.043 0 0 1-2.129-.836 2.89 2.89 0 0 1-.9-2.057l-.065-6.432-3.6.037.065 6.431a2.89 2.89 0 0 1-.858 2.075 3.044 3.044 0 0 1-2.112.88l-7.198.072a3.067 3.067 0 0 1-1.15-.21 3.005 3.005 0 0 1-.98-.624 2.92 2.92 0 0 1-.66-.942 2.86 2.86 0 0 1-.24-1.117L.137 13.862c-.004-.407.08-.811.245-1.185a2.94 2.94 0 0 1 .715-.988L12.987.936a3.032 3.032 0 0 1 2.011-.785 3.032 3.032 0 0 1 2.026.744L29.13 11.406c.312.271.562.603.735.974.173.37.265.772.27 1.18l.135 13.515c.008.775-.3 1.522-.858 2.076a3.04 3.04 0 0 1-2.112.878Zm-6.635-3.443 6-.06-.127-12.671-11.502-9.986L3.739 14.084l.128 12.672 5.999-.061-.065-6.432a2.89 2.89 0 0 1 .859-2.075 3.043 3.043 0 0 1 2.111-.879l4.8-.048a3.044 3.044 0 0 1 2.129.836 2.89 2.89 0 0 1 .9 2.057l.065 6.432Z"/>
  <defs>
    <linearGradient id="a" x1=".152" x2="30.149" y1="15.342" y2="14.959" gradientUnits="userSpaceOnUse">
      <stop stop-color="#00FF90"/>
      <stop offset="1" stop-color="#F5FE37"/>
    </linearGradient>
  </defs>
</svg>
