<svg xmlns="http://www.w3.org/2000/svg" width="30" height="41" fill="none" viewBox="0 0 30 41">
  <path fill="#000" d="M30 24.643c0 4.229-1.58 8.285-4.393 11.275-2.813 2.99-6.629 4.67-10.607 4.67-3.978 0-7.794-1.68-10.607-4.67C1.58 32.928 0 28.872 0 24.643c0-4.207 1.31-8.524 3.892-12.832.102-.17.236-.315.393-.427a1.284 1.284 0 0 1 1.083-.202c.184.049.357.137.507.26l4.39 3.595L15.082.954c.073-.215.194-.408.35-.564.158-.156.348-.27.554-.333a1.316 1.316 0 0 1 1.215.248C17.723.737 30 11.044 30 24.643Z"/>
</svg>
