<svg xmlns="http://www.w3.org/2000/svg" width="31" height="31" fill="none" viewBox="0 0 31 31">
  <path fill="gray" fill-opacity=".75" d="M30.053 27.404c-1.966-3.467-4.989-6.14-8.58-7.59 1.742-1.397 3.02-3.334 3.652-5.536a11.462 11.462 0 0 0-.13-6.733c-.715-2.175-2.066-4.06-3.86-5.387A10.137 10.137 0 0 0 14.999.151a10.137 10.137 0 0 0-6.093 2.13c-1.767 1.363-3.08 3.275-3.752 5.464a11.46 11.46 0 0 0 .007 6.734c.677 2.189 1.993 4.1 3.763 5.462-3.562 1.52-6.53 4.255-8.426 7.76-.215.4-.27.873-.153 1.315.118.443.398.818.78 1.044.38.226.832.284 1.254.161a1.66 1.66 0 0 0 .995-.815 14.114 14.114 0 0 1 4.985-5.329 13.284 13.284 0 0 1 6.861-2.001 13.284 13.284 0 0 1 6.901 1.863 14.113 14.113 0 0 1 5.091 5.227c.224.395.588.68 1.012.794.424.114.874.047 1.25-.187.377-.233.65-.614.758-1.058a1.803 1.803 0 0 0-.179-1.31ZM7.955 11.19a7.757 7.757 0 0 1 1.164-4.18 7.24 7.24 0 0 1 3.183-2.795 6.851 6.851 0 0 1 4.13-.468 7.06 7.06 0 0 1 3.684 2.015 7.616 7.616 0 0 1 1.997 3.82 7.833 7.833 0 0 1-.364 4.336 7.435 7.435 0 0 1-2.601 3.392 6.924 6.924 0 0 1-3.963 1.304c-1.896.017-3.723-.755-5.079-2.148-1.355-1.392-2.129-3.29-2.151-5.278Z"/>
</svg>
