<svg xmlns="http://www.w3.org/2000/svg" width="60" height="60" fill="none" viewBox="0 0 60 60">
  <path fill="#EAEAEA" fill-opacity=".75" fill-rule="evenodd" d="M11.767 8.75a3.017 3.017 0 0 0-3.017 3.017v36.466a3.017 3.017 0 0 0 3.017 3.017h36.466a3.017 3.017 0 0 0 3.017-3.017V11.767a3.017 3.017 0 0 0-3.017-3.017H11.767Zm6.522 13.198a3.687 3.687 0 1 0 0-7.373 3.687 3.687 0 0 0 0 7.373Zm7.064 2.725h6.11v2.8s1.658-3.317 6.17-3.317c4.024 0 7.358 1.983 7.358 8.026v12.742h-6.332V33.727c0-3.565-1.903-3.957-3.353-3.957-3.01 0-3.525 2.596-3.525 4.422v10.733h-6.428v-20.25Zm-3.85 0h-6.428v20.252h6.428V24.673Z" clip-rule="evenodd"/>
</svg>
