<svg width="80" height="80" viewBox="0 0 80 80" fill="none" xmlns="http://www.w3.org/2000/svg">
<path d="M75.9987 57.4283C78.5679 52.1251 79.9334 46.3198 79.9976 40.4275C80.0618 34.5351 78.8231 28.7014 76.37 23.3436C73.9169 17.9858 70.3101 13.2363 65.8076 9.43479C61.3051 5.63332 56.0181 2.87382 50.3249 1.35367C50.2556 1.33207 50.1855 1.31348 50.1149 1.29677C43.8691 -0.334297 37.3211 -0.428123 31.0312 1.02331C24.7412 2.47475 18.8964 5.42825 13.9968 9.63116C13.8093 9.76125 13.637 9.91194 13.4831 10.0804C7.40519 15.4597 3.10845 22.5615 1.16411 30.4418C-0.780234 38.322 -0.280081 46.6074 2.59808 54.1966C5.47624 61.7857 10.5961 68.3191 17.277 72.9282C23.9579 77.5374 31.8834 80.0039 40 80C40.283 80 40.5649 79.9951 40.8466 79.9893C40.8536 79.9893 40.8605 79.9902 40.8673 79.9902C40.8808 79.9902 40.8937 79.9887 40.9071 79.9885C48.1715 79.8171 55.2525 77.6725 61.3913 73.7844C67.5301 69.8964 72.4954 64.4115 75.7553 57.9173L75.761 57.909C75.8541 57.756 75.9337 57.5952 75.9987 57.4283ZM73.8462 40C73.8496 44.0323 73.1291 48.0325 71.7188 51.8102L53.8724 40.8339C53.141 40.3829 52.3228 40.0911 51.471 39.9775L42.6948 38.7943C41.5665 38.648 40.4198 38.8152 39.3803 39.2775C38.3408 39.7398 37.4487 40.4794 36.8018 41.4153H33.516L32.0527 38.3921C31.6475 37.5481 31.054 36.8084 30.3178 36.23C29.5816 35.6517 28.7224 35.2501 27.8065 35.0564L25.2806 34.5136L27.0418 30.3324H35.2517C36.2921 30.3319 37.3154 30.068 38.2264 29.5654L42.9353 26.9652C43.3497 26.7362 43.7364 26.4604 44.0877 26.143L54.4379 16.7822C55.3301 15.9815 55.9674 14.9362 56.2705 13.7763C56.5737 12.6164 56.5294 11.393 56.1431 10.2581C61.4954 13.166 65.9645 17.4633 69.0799 22.6974C72.1954 27.9315 73.8419 33.9088 73.8462 40ZM6.15385 40C6.14784 34.6991 7.39466 29.4718 9.79268 24.7442L13.8017 35.4444C14.1616 36.4116 14.7599 37.2722 15.5413 37.9465C16.3226 38.6207 17.2616 39.0866 18.2711 39.301L20.3914 39.7568L20.4088 39.7606L26.5133 41.0727L27.977 44.0963C28.4841 45.1345 29.2717 46.0101 30.2506 46.6238C31.2296 47.2376 32.3608 47.565 33.5162 47.5691H33.9427L30.983 54.2105C30.4921 55.31 30.3349 56.5294 30.5309 57.7174C30.7268 58.9054 31.2674 60.0097 32.0854 60.8932L39.3159 68.714L38.3312 73.8047C29.6577 73.3663 21.4835 69.6147 15.4959 63.3242C9.50823 57.0338 6.16414 48.6846 6.15385 40Z" fill="black"/>
</svg>
