<svg xmlns="http://www.w3.org/2000/svg" width="60" height="60" fill="none" viewBox="0 0 60 60">
  <path fill="#EAEAEA" fill-opacity=".75" d="M30 52.5C17.573 52.5 7.5 42.427 7.5 30S17.573 7.5 30 7.5 52.5 17.573 52.5 30 42.427 52.5 30 52.5ZM45.008 30a3.285 3.285 0 0 0-5.558-2.25 16.02 16.02 0 0 0-8.663-2.767l1.463-7.02 4.815 1.012a2.25 2.25 0 1 0 .293-1.373L31.845 16.5a.697.697 0 0 0-.832.54l-1.666 7.808a16.065 16.065 0 0 0-8.774 2.767 3.285 3.285 0 1 0-3.623 5.378c-.025.329-.025.66 0 .99 0 5.04 5.873 9.135 13.117 9.135 7.245 0 13.118-4.096 13.118-9.136.025-.329.025-.66 0-.99A3.285 3.285 0 0 0 45.007 30Zm-22.5 2.25a2.25 2.25 0 1 1 4.5 0 2.25 2.25 0 0 1-4.5 0Zm13.072 6.188a8.64 8.64 0 0 1-5.557 1.732 8.64 8.64 0 0 1-5.558-1.733.607.607 0 0 1 .855-.854A7.358 7.358 0 0 0 30 39a7.38 7.38 0 0 0 4.703-1.373.629.629 0 1 1 .877.9v-.09Zm-.405-3.848a2.25 2.25 0 1 1 2.25-2.25 2.25 2.25 0 0 1-2.272 2.34l.022-.09Z"/>
</svg>
