<svg width="30" height="30" viewBox="0 0 30 30" fill="none" xmlns="http://www.w3.org/2000/svg">
<path fill-rule="evenodd" clip-rule="evenodd" d="M20.9888 23.6258C19.2902 24.8073 17.226 25.5 15 25.5C9.20101 25.5 4.5 20.799 4.5 15C4.5 12.1467 5.63807 9.55928 7.48505 7.66682L20.9888 23.6258ZM22.515 22.3332L9.01122 6.37422C10.7098 5.19267 12.774 4.5 15 4.5C20.799 4.5 25.5 9.20101 25.5 15C25.5 17.8533 24.3619 20.4407 22.515 22.3332ZM27.5 15C27.5 21.9036 21.9036 27.5 15 27.5C8.09644 27.5 2.5 21.9036 2.5 15C2.5 8.09644 8.09644 2.5 15 2.5C21.9036 2.5 27.5 8.09644 27.5 15Z" fill="#E24F46"/>
</svg>
