<svg xmlns="http://www.w3.org/2000/svg" width="70" height="70" fill="none" viewBox="0 0 70 70">
  <path fill="#EAEAEA" fill-opacity=".75" d="m69.112 41.184-2.912-4.37V33.19l2.91-4.364a5.295 5.295 0 0 0 .674-4.433 36.192 36.192 0 0 0-2.68-6.486 5.234 5.234 0 0 0-3.605-2.65l-5.154-1.031-2.564-2.564-1.03-5.154A5.228 5.228 0 0 0 52.094 2.9 36.357 36.357 0 0 0 45.615.22a5.249 5.249 0 0 0-4.432.673l-4.366 2.912H33.19L28.822.894a5.225 5.225 0 0 0-4.427-.673 36.184 36.184 0 0 0-6.487 2.681 5.211 5.211 0 0 0-2.65 3.605l-1.03 5.154-2.565 2.564-5.159 1.03a5.215 5.215 0 0 0-3.602 2.654 36.362 36.362 0 0 0-2.681 6.48 5.236 5.236 0 0 0 .673 4.431l2.914 4.37v3.624L.891 41.186a5.236 5.236 0 0 0-.67 4.428 36.16 36.16 0 0 0 2.68 6.476 5.206 5.206 0 0 0 3.606 2.658l5.156 1.03 2.564 2.565 1.03 5.15a5.199 5.199 0 0 0 2.651 3.61 36.016 36.016 0 0 0 6.482 2.677 5.178 5.178 0 0 0 4.432-.67l4.37-2.912h3.625l4.366 2.912a5.288 5.288 0 0 0 2.93.898c.51 0 1.016-.077 1.503-.226a36.217 36.217 0 0 0 6.476-2.678 5.192 5.192 0 0 0 2.656-3.605l1.03-5.156 2.567-2.564 5.156-1.031a5.235 5.235 0 0 0 3.605-2.656 36.216 36.216 0 0 0 2.678-6.478 5.295 5.295 0 0 0-.672-4.43ZM35.003 50.6a15.598 15.598 0 1 1 0-31.197 15.598 15.598 0 0 1 0 31.197Z"/>
</svg>
