<svg width="80" height="80" viewBox="0 0 80 80" fill="none" xmlns="http://www.w3.org/2000/svg">
<path d="M29.2303 35.5588C29.698 35.2888 30.0864 34.9004 30.3565 34.4327C30.6265 33.965 30.7687 33.4344 30.7687 32.8943V5.17803C30.7687 4.68582 30.6506 4.2008 30.4243 3.76369C30.198 3.32658 29.8702 2.95013 29.4683 2.66594C29.0664 2.38175 28.6022 2.19812 28.1147 2.13046C27.6271 2.06279 27.1305 2.11307 26.6664 2.27708C17.6842 5.46318 10.1322 11.7474 5.36686 20.0012C0.601548 28.2549 -1.06485 37.9372 0.666974 47.3091C0.756393 47.7935 0.960796 48.2493 1.263 48.6382C1.5652 49.0272 1.95636 49.3379 2.4036 49.5442C2.85085 49.7505 3.34109 49.8465 3.83311 49.8239C4.32514 49.8014 4.80457 49.6611 5.23108 49.4147L29.2303 35.5588ZM24.6149 9.84223V31.1177L6.19862 41.7502C6.16895 41.1677 6.15405 40.5842 6.15392 39.9999C6.1607 33.7617 7.88749 27.6461 11.1444 22.3256C14.4014 17.0051 19.0623 12.6857 24.6149 9.84223ZM80 39.9999C79.999 48.779 77.1102 57.314 71.779 64.289C66.4477 71.2639 58.9701 76.2915 50.499 78.5964C42.0279 80.9014 33.0338 80.3558 24.9035 77.0437C16.7731 73.7317 9.95804 67.8371 5.50902 60.2688C5.46934 60.2014 5.43559 60.1325 5.4016 60.0634C5.38817 60.0414 5.37192 60.0223 5.35897 59.9999C4.95098 59.2932 4.84044 58.4533 5.05165 57.6651C5.26285 56.8769 5.77851 56.2048 6.4852 55.7968L36.9231 38.2235V3.07692C36.9231 2.26087 37.2473 1.47825 37.8243 0.901217C38.4014 0.324185 39.184 8.16035e-06 40 0C46.9806 0.00420567 53.8387 1.83425 59.8934 5.30843C65.948 8.78261 70.9887 13.7801 74.5147 19.8047C74.5582 19.8683 74.6018 19.932 74.6411 20C74.6702 20.0503 74.6938 20.1021 74.7197 20.1534C78.1876 26.1923 80.0085 33.0361 80 39.9999Z" fill="#EAEAEA"/>
</svg>
