<svg width="30" height="30" viewBox="0 0 30 30" fill="none" xmlns="http://www.w3.org/2000/svg">
<path d="M15 0C12.0333 0 9.13319 0.879735 6.66645 2.52796C4.19972 4.17618 2.27713 6.51886 1.14181 9.25975C0.00649927 12.0006 -0.290551 15.0166 0.288227 17.9263C0.867006 20.8361 2.29562 23.5088 4.3934 25.6066C6.49119 27.7044 9.16393 29.133 12.0736 29.7118C14.9834 30.2906 17.9994 29.9935 20.7403 28.8582C23.4811 27.7229 25.8238 25.8003 27.472 23.3335C29.1203 20.8668 30 17.9667 30 15C29.9955 11.0231 28.4137 7.21044 25.6016 4.39837C22.7896 1.5863 18.9769 0.00450112 15 0ZM15 27.6923C12.4897 27.6923 10.0358 26.9479 7.94854 25.5533C5.8613 24.1586 4.23449 22.1763 3.27384 19.8571C2.31319 17.5379 2.06184 14.9859 2.55158 12.5239C3.04131 10.0618 4.25014 7.80023 6.02519 6.02518C7.80024 4.25013 10.0618 3.04131 12.5239 2.55157C14.9859 2.06184 17.5379 2.31319 19.8571 3.27384C22.1764 4.23449 24.1586 5.86129 25.5533 7.94853C26.9479 10.0358 27.6923 12.4897 27.6923 15C27.6885 18.365 26.3501 21.5912 23.9706 23.9706C21.5912 26.3501 18.365 27.6885 15 27.6923ZM19.0796 8.61286C19.8163 9.35017 20.3396 10.2732 20.5939 11.284C20.8483 12.2948 20.8241 13.3556 20.5241 14.3537C20.2241 15.3519 19.6594 16.2502 18.8899 16.9533C18.1205 17.6563 17.175 18.1379 16.1538 18.3469V18.4615C16.1538 18.7676 16.0323 19.061 15.8159 19.2774C15.5995 19.4938 15.306 19.6154 15 19.6154C14.694 19.6154 14.4005 19.4938 14.1841 19.2774C13.9677 19.061 13.8462 18.7676 13.8462 18.4615V17.3077C13.8462 17.0017 13.9677 16.7082 14.1841 16.4918C14.4005 16.2754 14.694 16.1539 15 16.1538C15.6846 16.1538 16.3538 15.9508 16.923 15.5704C17.4922 15.1901 17.9358 14.6495 18.1978 14.017C18.4597 13.3845 18.5282 12.6886 18.3947 12.0172C18.2611 11.3457 17.9315 10.729 17.4474 10.2449C16.9633 9.76085 16.3466 9.43119 15.6752 9.29763C15.0037 9.16406 14.3078 9.2326 13.6753 9.49456C13.0428 9.75652 12.5022 10.2001 12.1219 10.7693C11.7415 11.3385 11.5385 12.0077 11.5385 12.6923C11.5385 12.9983 11.4169 13.2918 11.2005 13.5082C10.9841 13.7246 10.6906 13.8462 10.3846 13.8462C10.0786 13.8462 9.78512 13.7246 9.56873 13.5082C9.35234 13.2918 9.23077 12.9983 9.23077 12.6923C9.23079 11.5513 9.56916 10.4358 10.2031 9.48708C10.8371 8.53834 11.7381 7.79888 12.7923 7.36222C13.8465 6.92557 15.0065 6.81132 16.1256 7.03393C17.2448 7.25654 18.2727 7.80601 19.0796 8.61286ZM16.7309 23.0769V23.0775C16.7308 23.5366 16.5484 23.9768 16.2237 24.3014C15.8991 24.626 15.4588 24.8083 14.9997 24.8083C14.5406 24.8082 14.1004 24.6258 13.7758 24.3012C13.4512 23.9766 13.2688 23.5363 13.2688 23.0772C13.2688 22.6181 13.4512 22.1778 13.7758 21.8532C14.1004 21.5286 14.5406 21.3462 14.9997 21.3461C15.4588 21.3461 15.8991 21.5284 16.2237 21.853C16.5484 22.1776 16.7308 22.6178 16.7309 23.0769Z" fill="#F5FE37"/>
</svg>
